HIERARCHY
ROOT Hips
{
  OFFSET 0 0 0
  CHANNELS 6 Xposition Yposition Zposition Zrotation Yrotation Xrotation
  JOINT LeftThigh
  {
    OFFSET 8.409438 0 -5.917753
    CHANNELS 3 Zrotation Yrotation Xrotation
    JOINT LeftLeg
    {
      OFFSET 0 0 -42.358652
      CHANNELS 3 Zrotation Yrotation Xrotation
      JOINT LeftFoot
      {
        OFFSET 0 0 -39.357303
        CHANNELS 3 Zrotation Yrotation Xrotation
      }
    }
  }
  JOINT RightThigh
  {
    OFFSET -8.409438 0 -5.917753
    CHANNELS 3 Zrotation Yrotation Xrotation
    JOINT RightLeg
    {
      OFFSET 0 0 -42.358652
      CHANNELS 3 Zrotation Yrotation Xrotation
      JOINT RightFoot
      {
        OFFSET 0 0 -39.357303
        CHANNELS 3 Zrotation Yrotation Xrotation
      }
    }
  }
  JOINT SpineLow
  {
    OFFSET 0 0 4.719101
    CHANNELS 3 Zrotation Yrotation Xrotation
    JOINT SpineMid
    {
      OFFSET 0 0 12.899191
      CHANNELS 3 Zrotation Yrotation Xrotation
      JOINT Chest
      {
        OFFSET 0 0 12.899191
        CHANNELS 3 Zrotation Yrotation Xrotation
        JOINT LeftShoulder
        {
          OFFSET 7.550562 1.41573 9.438202
          CHANNELS 3 Zrotation Yrotation Xrotation
          JOINT LeftArm
          {
            OFFSET 9.155056 0 4.247191
            CHANNELS 3 Zrotation Yrotation Xrotation
            JOINT LeftForearm
            {
              OFFSET 0 0 25.771955
              CHANNELS 3 Zrotation Yrotation Xrotation
              JOINT LeftHand
              {
                OFFSET 0 0 25.197169
                CHANNELS 3 Zrotation Yrotation Xrotation
              }
            }
          }
        }
        JOINT RightShoulder
        {
          OFFSET -7.550562 1.41573 9.438202
          CHANNELS 3 Zrotation Yrotation Xrotation
          JOINT RightArm
          {
            OFFSET -9.155056 0 4.247191
            CHANNELS 3 Zrotation Yrotation Xrotation
            JOINT RightForearm
            {
              OFFSET 0 0 -25.771955
              CHANNELS 3 Zrotation Yrotation Xrotation
              JOINT RightHand
              {
                OFFSET 0 0 -25.197169
                CHANNELS 3 Zrotation Yrotation Xrotation
              }
            }
          }
        }
        JOINT Neck
        {
          OFFSET 0 0 15.101124
          CHANNELS 3 Zrotation Yrotation Xrotation
          JOINT Head
          {
            OFFSET 0 0 11.325843
            CHANNELS 3 Zrotation Yrotation Xrotation
            End Site
            {
              OFFSET 0 0 14.157303
            }
          }
        }
      }
    }
  }
}
MOTION
Frames: 5
Frame Time: 0.0
0.0  93.25843  0.0  -0.42669  -17.853536  -86.173836  2.855521  -12.169632  -9.277219  6.640654  -3.070253  20.178806  9.178141  2.241332  4.724962  -10.845562  -2.275376  -19.956632  -8.203063  13.0918  13.563194  4.454848  1.914089  0.855496  3.850723  1.002662  -0.771381  10.498336  2.855049  -1.944018  10.498336  2.855049  -1.944018  -31.945207  9.002133  4.583969  165.847694  37.926471  -138.08068  -7.097761  -13.603847  84.406758  94.925549  17.493126  -24.963217  3.238879  -22.102931  29.039043  83.830743  51.497263  41.030807  -4.273856  -23.771434  -73.525509  82.412104  -12.348784  -22.752358  -7.960875  3.362175  15.224529  -6.057254  2.325473  11.46123  
0.0  93.25843  0.0  -0.721021  -23.211591  -86.394733  3.687971  -12.248433  -7.729783  8.943292  -3.32495  19.521726  10.184704  2.25495  4.844577  -8.59625  -2.79639  -20.215508  -6.885456  12.572606  13.449482  4.774446  1.740129  0.950295  4.015205  0.992301  -0.846346  10.945071  2.843709  -2.14278  10.945072  2.843709  -2.14278  -30.634728  8.423547  5.308967  168.81843  36.815597  -137.792042  -5.750869  -15.88428  84.064692  94.800789  18.206442  -24.434  3.090667  -21.536296  29.363241  84.15458  50.664063  40.964344  -1.204463  -27.86102  -78.046308  80.915878  -16.495647  -22.863673  -5.864965  3.512158  15.194794  -4.488074  2.490395  11.427482  
0.0  93.25843  0.0  -0.980614  -28.806354  -86.70518  4.699982  -12.325595  -6.055743  11.554383  -3.521615  18.860578  11.195833  2.238502  4.974104  -6.288422  -3.27554  -20.301456  -5.554074  12.016155  13.201885  4.820532  1.448208  1.033441  4.196928  0.995329  -0.904262  11.43939  2.867468  -2.292027  11.43939  2.867468  -2.292027  -29.496978  7.776953  6.167346  171.929884  35.491356  -137.60616  -4.967122  -17.642987  83.863495  94.820035  18.706296  -24.146057  2.920009  -20.910142  29.664628  84.20837  49.905795  40.707984  2.711781  -31.079745  -82.957949  78.643356  -20.471444  -22.275266  -3.797666  3.534688  15.088487  -2.93686  2.559227  11.335257  
0.0  93.25843  0.0  -1.264017  -34.590554  -87.037256  6.084977  -12.475368  -4.25286  14.47363  -3.654144  18.172584  11.985308  2.196325  5.102805  -3.785474  -3.786411  -20.132628  -4.347738  11.447827  12.725886  5.043683  1.328196  1.161704  4.383153  0.948363  -0.944462  11.948088  2.752886  -2.40156  11.948089  2.752886  -2.40156  -28.45962  7.549417  7.028692  175.100167  34.069445  -137.442256  -4.723047  -18.901531  83.627273  94.836832  18.991669  -24.320323  2.808441  -19.864154  29.902152  84.38728  49.056796  40.557245  6.767519  -32.789666  -88.32274  75.178784  -24.510016  -21.327615  -1.602291  3.688312  14.920307  -1.292402  2.729071  11.196121  
0.0  93.25843  0.0  -1.582778  -40.215549  -87.310135  7.711231  -12.670002  -2.418568  17.493908  -3.746288  17.466339  12.441372  2.173839  5.212372  -1.190621  -4.283316  -19.768926  -3.484  10.993234  12.056613  5.083793  1.176426  1.174315  4.459992  0.895695  -1.012766  12.156811  2.624644  -2.593872  12.15681  2.624644  -2.593872  -27.229792  7.243496  7.61682  178.11968  32.069318  -137.785862  -4.622821  -19.792455  83.242366  94.670988  19.047435  -25.231127  3.023505  -18.956233  30.17509  85.024201  48.05531  40.923021  10.652327  -33.36577  -93.372188  71.235689  -27.7816  -20.133938  0.822047  3.762436  14.766808  0.525621  2.843659  11.06608  
